<svg width="192" height="28" viewBox="0 0 192 28" fill="none" xmlns="http://www.w3.org/2000/svg">
<path d="M14.43 7.312C14.014 6.54933 13.442 5.96867 12.714 5.57C11.986 5.17133 11.1367 4.972 10.166 4.972C9.09133 4.972 8.138 5.21467 7.306 5.7C6.474 6.18533 5.824 6.87867 5.356 7.78C4.888 8.68133 4.654 9.72133 4.654 10.9C4.654 12.1133 4.888 13.1707 5.356 14.072C5.84133 14.9733 6.50867 15.6667 7.358 16.152C8.20733 16.6373 9.19533 16.88 10.322 16.88C11.7087 16.88 12.844 16.516 13.728 15.788C14.612 15.0427 15.1927 14.0113 15.47 12.694H9.23V9.912H19.058V13.084C18.8153 14.3493 18.2953 15.5193 17.498 16.594C16.7007 17.6687 15.6693 18.5353 14.404 19.194C13.156 19.8353 11.752 20.156 10.192 20.156C8.44133 20.156 6.85533 19.766 5.434 18.986C4.03 18.1887 2.92067 17.088 2.106 15.684C1.30867 14.28 0.91 12.6853 0.91 10.9C0.91 9.11467 1.30867 7.52 2.106 6.116C2.92067 4.69467 4.03 3.594 5.434 2.814C6.85533 2.01667 8.43267 1.618 10.166 1.618C12.2113 1.618 13.988 2.12067 15.496 3.126C17.004 4.114 18.044 5.50933 18.616 7.312H14.43ZM35.479 5.596V20H31.813V18.18C31.345 18.804 30.7297 19.298 29.967 19.662C29.2217 20.0087 28.407 20.182 27.523 20.182C26.3964 20.182 25.3997 19.948 24.533 19.48C23.6664 18.9947 22.9817 18.2927 22.479 17.374C21.9937 16.438 21.751 15.3287 21.751 14.046V5.596H25.391V13.526C25.391 14.67 25.677 15.554 26.249 16.178C26.821 16.7847 27.601 17.088 28.589 17.088C29.5944 17.088 30.383 16.7847 30.955 16.178C31.527 15.554 31.813 14.67 31.813 13.526V5.596H35.479ZM38.2645 12.746C38.2645 11.29 38.5505 9.99867 39.1225 8.872C39.7118 7.74533 40.5091 6.87867 41.5145 6.272C42.5198 5.66533 43.6378 5.362 44.8685 5.362C45.8045 5.362 46.6971 5.57 47.5465 5.986C48.3958 6.38467 49.0718 6.922 49.5745 7.598V0.76H53.2665V20H49.5745V17.868C49.1238 18.5787 48.4912 19.1507 47.6765 19.584C46.8618 20.0173 45.9171 20.234 44.8425 20.234C43.6291 20.234 42.5198 19.922 41.5145 19.298C40.5091 18.674 39.7118 17.7987 39.1225 16.672C38.5505 15.528 38.2645 14.2193 38.2645 12.746ZM49.6005 12.798C49.6005 11.914 49.4271 11.16 49.0805 10.536C48.7338 9.89467 48.2658 9.40933 47.6765 9.08C47.0871 8.73333 46.4545 8.56 45.7785 8.56C45.1025 8.56 44.4785 8.72467 43.9065 9.054C43.3345 9.38333 42.8665 9.86867 42.5025 10.51C42.1558 11.134 41.9825 11.8793 41.9825 12.746C41.9825 13.6127 42.1558 14.3753 42.5025 15.034C42.8665 15.6753 43.3345 16.1693 43.9065 16.516C44.4958 16.8627 45.1198 17.036 45.7785 17.036C46.4545 17.036 47.0871 16.8713 47.6765 16.542C48.2658 16.1953 48.7338 15.71 49.0805 15.086C49.4271 14.4447 49.6005 13.682 49.6005 12.798ZM56.0156 12.746C56.0156 11.29 56.3016 9.99867 56.8736 8.872C57.4629 7.74533 58.2516 6.87867 59.2396 6.272C60.2449 5.66533 61.3629 5.362 62.5936 5.362C63.6682 5.362 64.6042 5.57867 65.4016 6.012C66.2162 6.44533 66.8662 6.99133 67.3516 7.65V5.596H71.0176V20H67.3516V17.894C66.8836 18.57 66.2336 19.1333 65.4016 19.584C64.5869 20.0173 63.6422 20.234 62.5676 20.234C61.3542 20.234 60.2449 19.922 59.2396 19.298C58.2516 18.674 57.4629 17.7987 56.8736 16.672C56.3016 15.528 56.0156 14.2193 56.0156 12.746ZM67.3516 12.798C67.3516 11.914 67.1782 11.16 66.8316 10.536C66.4849 9.89467 66.0169 9.40933 65.4276 9.08C64.8382 8.73333 64.2056 8.56 63.5296 8.56C62.8536 8.56 62.2296 8.72467 61.6576 9.054C61.0856 9.38333 60.6176 9.86867 60.2536 10.51C59.9069 11.134 59.7336 11.8793 59.7336 12.746C59.7336 13.6127 59.9069 14.3753 60.2536 15.034C60.6176 15.6753 61.0856 16.1693 61.6576 16.516C62.2469 16.8627 62.8709 17.036 63.5296 17.036C64.2056 17.036 64.8382 16.8713 65.4276 16.542C66.0169 16.1953 66.4849 15.71 66.8316 15.086C67.1782 14.4447 67.3516 13.682 67.3516 12.798ZM82.6847 5.388C84.4007 5.388 85.7873 5.934 86.8447 7.026C87.902 8.10067 88.4307 9.60867 88.4307 11.55V20H84.7907V12.044C84.7907 10.9 84.5047 10.0247 83.9327 9.418C83.3607 8.794 82.5807 8.482 81.5927 8.482C80.5873 8.482 79.79 8.794 79.2007 9.418C78.6287 10.0247 78.3427 10.9 78.3427 12.044V20H74.7027V5.596H78.3427V7.39C78.828 6.766 79.4433 6.28067 80.1887 5.934C80.9513 5.57 81.7833 5.388 82.6847 5.388ZM97.6641 5.362C98.7388 5.362 99.6835 5.57867 100.498 6.012C101.313 6.428 101.954 6.974 102.422 7.65V5.596H106.088V20.104C106.088 21.4387 105.819 22.626 105.282 23.666C104.745 24.7233 103.939 25.5553 102.864 26.162C101.789 26.786 100.489 27.098 98.9641 27.098C96.9188 27.098 95.2375 26.6213 93.9201 25.668C92.6201 24.7147 91.8835 23.4147 91.7101 21.768H95.3241C95.5148 22.4267 95.9221 22.9467 96.5461 23.328C97.1875 23.7267 97.9588 23.926 98.8601 23.926C99.9175 23.926 100.775 23.6053 101.434 22.964C102.093 22.34 102.422 21.3867 102.422 20.104V17.868C101.954 18.544 101.304 19.1073 100.472 19.558C99.6575 20.0087 98.7215 20.234 97.6641 20.234C96.4508 20.234 95.3415 19.922 94.3361 19.298C93.3308 18.674 92.5335 17.7987 91.9441 16.672C91.3721 15.528 91.0861 14.2193 91.0861 12.746C91.0861 11.29 91.3721 9.99867 91.9441 8.872C92.5335 7.74533 93.3221 6.87867 94.3101 6.272C95.3155 5.66533 96.4335 5.362 97.6641 5.362ZM102.422 12.798C102.422 11.914 102.249 11.16 101.902 10.536C101.555 9.89467 101.087 9.40933 100.498 9.08C99.9088 8.73333 99.2761 8.56 98.6001 8.56C97.9241 8.56 97.3001 8.72467 96.7281 9.054C96.1561 9.38333 95.6881 9.86867 95.3241 10.51C94.9775 11.134 94.8041 11.8793 94.8041 12.746C94.8041 13.6127 94.9775 14.3753 95.3241 15.034C95.6881 15.6753 96.1561 16.1693 96.7281 16.516C97.3175 16.8627 97.9415 17.036 98.6001 17.036C99.2761 17.036 99.9088 16.8713 100.498 16.542C101.087 16.1953 101.555 15.71 101.902 15.086C102.249 14.4447 102.422 13.682 102.422 12.798ZM122.365 20.182C121.099 20.182 119.955 19.9653 118.933 19.532C117.927 19.0987 117.13 18.4747 116.541 17.66C115.951 16.8453 115.648 15.8833 115.631 14.774H119.531C119.583 15.5193 119.843 16.1087 120.311 16.542C120.796 16.9753 121.455 17.192 122.287 17.192C123.136 17.192 123.803 16.9927 124.289 16.594C124.774 16.178 125.017 15.6407 125.017 14.982C125.017 14.4447 124.852 14.0027 124.523 13.656C124.193 13.3093 123.777 13.0407 123.275 12.85C122.789 12.642 122.113 12.4167 121.247 12.174C120.068 11.8273 119.106 11.4893 118.361 11.16C117.633 10.8133 117 10.302 116.463 9.626C115.943 8.93267 115.683 8.014 115.683 6.87C115.683 5.79533 115.951 4.85933 116.489 4.062C117.026 3.26467 117.78 2.658 118.751 2.242C119.721 1.80867 120.831 1.592 122.079 1.592C123.951 1.592 125.467 2.05133 126.629 2.97C127.807 3.87133 128.457 5.13667 128.579 6.766H124.575C124.54 6.142 124.271 5.63067 123.769 5.232C123.283 4.816 122.633 4.608 121.819 4.608C121.108 4.608 120.536 4.79 120.103 5.154C119.687 5.518 119.479 6.04667 119.479 6.74C119.479 7.22533 119.635 7.63267 119.947 7.962C120.276 8.274 120.675 8.534 121.143 8.742C121.628 8.93267 122.304 9.158 123.171 9.418C124.349 9.76467 125.311 10.1113 126.057 10.458C126.802 10.8047 127.443 11.3247 127.981 12.018C128.518 12.7113 128.787 13.6213 128.787 14.748C128.787 15.7187 128.535 16.62 128.033 17.452C127.53 18.284 126.793 18.9513 125.823 19.454C124.852 19.9393 123.699 20.182 122.365 20.182ZM131.136 12.746C131.136 11.29 131.422 9.99867 131.994 8.872C132.584 7.74533 133.372 6.87867 134.36 6.272C135.366 5.66533 136.484 5.362 137.714 5.362C138.789 5.362 139.725 5.57867 140.522 6.012C141.337 6.44533 141.987 6.99133 142.472 7.65V5.596H146.138V20H142.472V17.894C142.004 18.57 141.354 19.1333 140.522 19.584C139.708 20.0173 138.763 20.234 137.688 20.234C136.475 20.234 135.366 19.922 134.36 19.298C133.372 18.674 132.584 17.7987 131.994 16.672C131.422 15.528 131.136 14.2193 131.136 12.746ZM142.472 12.798C142.472 11.914 142.299 11.16 141.952 10.536C141.606 9.89467 141.138 9.40933 140.548 9.08C139.959 8.73333 139.326 8.56 138.65 8.56C137.974 8.56 137.35 8.72467 136.778 9.054C136.206 9.38333 135.738 9.86867 135.374 10.51C135.028 11.134 134.854 11.8793 134.854 12.746C134.854 13.6127 135.028 14.3753 135.374 15.034C135.738 15.6753 136.206 16.1693 136.778 16.516C137.368 16.8627 137.992 17.036 138.65 17.036C139.326 17.036 139.959 16.8713 140.548 16.542C141.138 16.1953 141.606 15.71 141.952 15.086C142.299 14.4447 142.472 13.682 142.472 12.798ZM163.603 5.596L154.685 26.812H150.811L153.931 19.636L148.159 5.596H152.241L155.959 15.658L159.729 5.596H163.603ZM179.294 5.596V20H175.628V18.18C175.16 18.804 174.544 19.298 173.782 19.662C173.036 20.0087 172.222 20.182 171.338 20.182C170.211 20.182 169.214 19.948 168.348 19.48C167.481 18.9947 166.796 18.2927 166.294 17.374C165.808 16.438 165.566 15.3287 165.566 14.046V5.596H169.206V13.526C169.206 14.67 169.492 15.554 170.064 16.178C170.636 16.7847 171.416 17.088 172.404 17.088C173.409 17.088 174.198 16.7847 174.77 16.178C175.342 15.554 175.628 14.67 175.628 13.526V5.596H179.294ZM186.655 7.832C187.123 7.06933 187.73 6.47133 188.475 6.038C189.238 5.60467 190.104 5.388 191.075 5.388V9.21H190.113C188.969 9.21 188.102 9.47867 187.513 10.016C186.941 10.5533 186.655 11.4893 186.655 12.824V20H183.015V5.596H186.655V7.832Z" fill="#368824"/>
</svg>
